<svg xmlns="http://www.w3.org/2000/svg" viewBox="0 0 150 150">
<!-- SVG created with Arrow, by QuiverAI (https://quiver.ai) -->
  <style type="text/css">.cls-0 {fill:url(#SVGID_1_);}
.cls-1 {fill:#1D3F6E;}
.cls-2 {fill:url(#SVGID_2_);}
.cls-3 {fill:#FFFFFF;}</style>
  <linearGradient id="SVGID_1_" x1="96.61" x2="107" y1="45.19" y2="7.67" gradientUnits="userSpaceOnUse">
    <stop stop-color="#F0603C" offset="0"/>
    <stop stop-color="#F7A233" offset="1"/>
  </linearGradient>
  <path class="cls-0" d="m96.5 8.1v37.6c2.6-1.7 8.5-5.5 10.5-6.5v-31.1h-10.5z"/>
  <path class="cls-1" d="m42.6 36.4-0.1 2.8c3.5 1.9 6.6 3.8 10.6 6.4v-9.1l-10.5-0.1z"/>
  <linearGradient id="SVGID_2_" x1="83.06" x2="111.1" y1="57.52" y2="39.64" gradientUnits="userSpaceOnUse">
    <stop stop-color="#EE5A3D" offset="0"/>
    <stop stop-color="#F7A233" offset="1"/>
  </linearGradient>
  <path class="cls-2" d="m77.2 71.3c7-8.6 17.4-18.3 33.9-27.7v-3.9c-8.1 4.3-26.3 14.4-33.9 31.6z"/>
  <linearGradient id="SVGID_3_" x1="82.97" x2="93.56" y1="57.48" y2="16.02" gradientUnits="userSpaceOnUse">
    <stop stop-color="#164F76" offset="0"/>
    <stop stop-color="#14A5A0" offset="1"/>
  </linearGradient>
  <path d="m82.9 16.2v41.5c2.8-3.1 7.1-6.7 10.6-10.2v-31.3h-10.6z" fill="url(#SVGID_3_)"/>
  <linearGradient id="SVGID_4_" x1="56.44" x2="66.77" y1="45.66" y2="45.66" gradientUnits="userSpaceOnUse">
    <stop stop-color="#1A4A70" offset="0"/>
    <stop stop-color="#14607E" offset="1"/>
  </linearGradient>
  <path d="m56.4 30.9v16.5c2.7 1.8 7.1 5.6 10.4 10.3v-26.8h-10.4z" fill="url(#SVGID_4_)"/>
  <linearGradient id="SVGID_5_" x1="69.68" x2="79.78" y1="67.76" y2="24.52" gradientUnits="userSpaceOnUse">
    <stop stop-color="#1D3F6E" offset="0"/>
    <stop stop-color="#127487" offset="1"/>
  </linearGradient>
  <path d="m69.7 24.5v36.9c2 2.6 3.9 5.4 5.3 9 1-2.8 3.6-6.7 4.8-8.6v-37.3h-10.1z" fill="url(#SVGID_5_)"/>
  <linearGradient id="SVGID_6_" x1="87.05" x2="116.3" y1="75.75" y2="43.78" gradientUnits="userSpaceOnUse">
    <stop stop-color="#13697F" offset="0"/>
    <stop stop-color="#14A5A0" offset="1"/>
  </linearGradient>
  <path d="m78.4 73.8c8.9-7 16.6-12.7 37.8-23.4v-6.7c-9.4 4.7-26.8 14.2-37.8 30.1z" fill="url(#SVGID_6_)"/>
  <linearGradient id="SVGID_7_" x1="80.88" x2="122.3" y1="66.48" y2="66.48" gradientUnits="userSpaceOnUse">
    <stop stop-color="#13697F" offset="0"/>
    <stop stop-color="#14A5A0" offset="1"/>
  </linearGradient>
  <path d="m79.7 75.8 42.6-16.4v-9c-10.5 4.5-28.5 12.7-42.6 25.4z" fill="url(#SVGID_7_)"/>
  <path d="m72.8 71.3c-7-8.6-17.4-18.3-33.9-27.7v-3.9c8.1 4.3 26.3 14.4 33.9 31.6z" fill="#14708F"/>
  <path d="m71.6 73.8c-8.9-7-16.6-12.7-37.8-23.4v-6.7c9.4 4.7 26.8 14.2 37.8 30.1z" fill="#1A4A70"/>
  <path d="m70.3 75.8-42.6-16.4v-9c10.5 4.5 28.5 12.7 42.6 25.4z" fill="url(#SVGID_10_)"/>
  <path class="cls-1" d="m21 60v62l45.4 17.4v-62.3l-45.4-17.1z"/>
  <linearGradient id="SVGID_8_" x1="-4234" x2="-4196" y1="103.8" y2="95.61" gradientTransform="matrix(-1 0 0 1 -4129 0)" gradientUnits="userSpaceOnUse">
    <stop stop-color="#13697F" offset="0"/>
    <stop stop-color="#1D3F6E" offset="1"/>
  </linearGradient>
  <path d="m83.4 77.1 45.5-17.1v62.2l-45.5 17.2v-62.3z" fill="url(#SVGID_8_)"/>
  <linearGradient id="SVGID_9_" x1="75.01" x2="75.01" y1="78.01" y2="142.1" gradientUnits="userSpaceOnUse">
    <stop stop-color="#14A5A0" offset="0"/>
    <stop stop-color="#1D3F6E" offset="1"/>
  </linearGradient>
  <path d="m68.1 77.8 0.1 62.2s2.8 1.9 6.6 1.9 6.7-1.9 6.7-1.9l-0.1-62.2c-2 1.1-7.5 2.9-13.3 0z" fill="url(#SVGID_9_)"/>
  <path class="cls-1" d="m75 79.4c-1.9 0.1-4.2-0.4-6.8-1.6v62.2c1.9 1 3.4 1.9 6.8 2v-62.6z"/>
  <path class="cls-3" d="m117.5 83.2-13.9 19.4-6.5-5.9-3.9 5.1 11.1 10.9 17.9-25.7-4.7-3.8z"/>
  <path class="cls-3" d="m38.8 91.1-5.9-1.9c0.1-2 0.6-4 2.2-5.6 2.4-2.4 6.3-2.8 11-0.5 4.6 2.2 7.8 6.3 7.6 11.1-0.2 6.1-6.5 6-7.7 8.8-0.4 1-0.4 3.3-0.5 3.2l-5.7-1.7c0-5.3 0.8-6.4 5.2-8.6 1.5-0.7 2.2-1.9 2.2-3.5 0.1-2.3-1.4-4.1-3.4-4.8-2.9-1.1-4.7 0.8-5 3.5zm6.7 24.5c-1.4 1.1-3.4 0.6-4.9-0.8-1.4-1.4-2.1-3.8-0.9-5.5 1.2-1.4 3.3-1.6 5.4 0.4 1.7 1.8 1.8 4.6 0.4 5.9z"/>
  <linearGradient id="SVGID_10_" x1="69.12" x2="27.7" y1="66.48" y2="66.48" gradientUnits="userSpaceOnUse">
    <stop stop-color="#1D3F6E" offset="0"/>
    <stop stop-color="#1A4A70" offset=".9949"/>
  </linearGradient>
</svg>