<svg xmlns="http://www.w3.org/2000/svg" viewBox="0 0 150 150">
  <g stroke="#127487" stroke-width="6" stroke-linecap="round" fill="none">
    <path d="M62 64C50 58 44 50 40 40"/>
    <path d="M62 86C50 92 44 100 40 110"/>
    <path d="M88 64c12-6 18-14 22-24"/>
    <path d="M88 86c12 6 18 14 22 24"/>
  </g>
  <linearGradient id="mm_center" x1="75" x2="75" y1="52" y2="98" gradientUnits="userSpaceOnUse">
    <stop stop-color="#14A5A0" offset="0"/>
    <stop stop-color="#1D3F6E" offset="1"/>
  </linearGradient>
  <rect x="52" y="52" width="46" height="46" rx="14" fill="url(#mm_center)"/>
  <circle cx="75" cy="75" r="9" fill="#fff" opacity=".92"/>
  <linearGradient id="mm_n1" x1="35" x2="35" y1="19" y2="45" gradientUnits="userSpaceOnUse">
    <stop stop-color="#5FD0CB" offset="0"/>
    <stop stop-color="#2BB3A3" offset="1"/>
  </linearGradient>
  <circle cx="35" cy="32" r="13" fill="url(#mm_n1)"/>
  <linearGradient id="mm_n2" x1="35" x2="35" y1="105" y2="131" gradientUnits="userSpaceOnUse">
    <stop stop-color="#2BB3A3" offset="0"/>
    <stop stop-color="#127487" offset="1"/>
  </linearGradient>
  <circle cx="35" cy="118" r="13" fill="url(#mm_n2)"/>
  <linearGradient id="mm_n3" x1="115" x2="115" y1="19" y2="45" gradientUnits="userSpaceOnUse">
    <stop stop-color="#F9AC33" offset="0"/>
    <stop stop-color="#F0603C" offset="1"/>
  </linearGradient>
  <circle cx="115" cy="32" r="13" fill="url(#mm_n3)"/>
  <linearGradient id="mm_n4" x1="115" x2="115" y1="105" y2="131" gradientUnits="userSpaceOnUse">
    <stop stop-color="#1D6FA8" offset="0"/>
    <stop stop-color="#1D3F6E" offset="1"/>
  </linearGradient>
  <circle cx="115" cy="118" r="13" fill="url(#mm_n4)"/>
</svg>
